<?xml version="1.0"?>
<svg xmlns="http://www.w3.org/2000/svg" xmlns:xlink="http://www.w3.org/1999/xlink" xmlns:svgjs="http://svgjs.com/svgjs" version="1.1" width="512" height="512" x="0" y="0" viewBox="0 0 368 368" style="enable-background:new 0 0 512 512" xml:space="preserve" class=""><g><path xmlns="http://www.w3.org/2000/svg" d="m184 8c-97.199219 0-176 78.800781-176 176h80c0-53.039062 42.960938-96 96-96s96 42.960938 96 96h80c0-97.199219-78.800781-176-176-176zm0 0" fill="#d7d7d7" data-original="#cce4ff" style=""/><path xmlns="http://www.w3.org/2000/svg" d="m232 184c0 26.507812-21.492188 48-48 48s-48-21.492188-48-48 21.492188-48 48-48 48 21.492188 48 48zm0 0" fill="#d7d7d7" data-original="#cce4ff" style=""/><g xmlns="http://www.w3.org/2000/svg" fill="#007aff"><path d="m184 0c-101.457031 0-184 82.542969-184 184s82.542969 184 184 184 184-82.542969 184-184-82.542969-184-184-184zm0 352c-89.9375 0-163.375-71.089844-167.59375-160h64c4.105469 53.609375 48.945312 96 103.59375 96s99.488281-42.390625 103.59375-96h64c-4.21875 88.910156-77.65625 160-167.59375 160zm-88-168c0-48.519531 39.480469-88 88-88s88 39.480469 88 88-39.480469 88-88 88-88-39.480469-88-88zm191.59375-8c-4.105469-53.609375-48.945312-96-103.59375-96s-99.488281 42.390625-103.59375 96h-64c4.21875-88.910156 77.65625-160 167.59375-160s163.375 71.089844 167.59375 160zm0 0" fill="#c5c5c5" data-original="#007aff" style="" class=""/><path d="m184 240c30.878906 0 56-25.121094 56-56s-25.121094-56-56-56-56 25.121094-56 56 25.121094 56 56 56zm0-96c22.054688 0 40 17.945312 40 40s-17.945312 40-40 40-40-17.945312-40-40 17.945312-40 40-40zm0 0" fill="#c5c5c5" data-original="#007aff" style="" class=""/></g></g></svg>
